REM MD5 83ab989d0ce22d5e0189d0f27e190b2e
FILE "Rescue Heroes - Helden in Gefahr (Germany).bin" BINARY
  TRACK 01 MODE2/2352
    INDEX 01 00:00:00
  TRACK 02 AUDIO
    INDEX 00 21:51:21
    INDEX 01 21:53:21
  TRACK 03 AUDIO
    INDEX 00 22:47:58
    INDEX 01 22:49:58
  TRACK 04 AUDIO
    INDEX 00 22:54:55
    INDEX 01 22:56:55
  TRACK 05 AUDIO
    INDEX 00 25:19:27
    INDEX 01 25:21:27
  TRACK 06 AUDIO
    INDEX 00 25:27:61
    INDEX 01 25:29:61
  TRACK 07 AUDIO
    INDEX 00 28:07:04
    INDEX 01 28:09:04
  TRACK 08 AUDIO
    INDEX 00 28:13:66
    INDEX 01 28:15:66
  TRACK 09 AUDIO
    INDEX 00 30:46:16
    INDEX 01 30:48:16
  TRACK 10 AUDIO
    INDEX 00 30:52:64
    INDEX 01 30:54:64
  TRACK 11 AUDIO
    INDEX 00 32:20:39
    INDEX 01 32:22:39
  TRACK 12 AUDIO
    INDEX 00 32:31:38
    INDEX 01 32:33:38
  TRACK 13 AUDIO
    INDEX 00 34:48:65
    INDEX 01 34:50:65
  TRACK 14 AUDIO
    INDEX 00 34:54:67
    INDEX 01 34:56:67
  TRACK 15 AUDIO
    INDEX 00 36:12:21
    INDEX 01 36:14:21
  TRACK 16 AUDIO
    INDEX 00 36:23:25
    INDEX 01 36:25:25
  TRACK 17 AUDIO
    INDEX 00 36:31:23
    INDEX 01 36:33:23
  TRACK 18 AUDIO
    INDEX 00 36:51:04
    INDEX 01 36:53:04
  TRACK 19 AUDIO
    INDEX 00 37:04:13
    INDEX 01 37:06:13
  TRACK 20 AUDIO
    INDEX 00 37:19:05
    INDEX 01 37:21:05
  TRACK 21 AUDIO
    INDEX 00 37:27:08
    INDEX 01 37:29:08
  TRACK 22 AUDIO
    INDEX 00 37:34:15
    INDEX 01 37:36:15
  TRACK 23 AUDIO
    INDEX 00 37:46:17
    INDEX 01 37:48:17
  TRACK 24 AUDIO
    INDEX 00 38:02:24
    INDEX 01 38:04:24
  TRACK 25 AUDIO
    INDEX 00 38:13:62
    INDEX 01 38:15:62
  TRACK 26 AUDIO
    INDEX 00 38:23:61
    INDEX 01 38:25:61
  TRACK 27 AUDIO
    INDEX 00 38:33:42
    INDEX 01 38:35:42
  TRACK 28 AUDIO
    INDEX 00 38:41:67
    INDEX 01 38:43:67
  TRACK 29 AUDIO
    INDEX 00 38:48:44
    INDEX 01 38:50:44
  TRACK 30 AUDIO
    INDEX 00 39:03:30
    INDEX 01 39:05:30
  TRACK 31 AUDIO
    INDEX 00 39:13:65
    INDEX 01 39:15:65
  TRACK 32 AUDIO
    INDEX 00 39:23:05
    INDEX 01 39:25:05
  TRACK 33 AUDIO
    INDEX 00 39:39:14
    INDEX 01 39:41:14
  TRACK 34 AUDIO
    INDEX 00 40:02:13
    INDEX 01 40:04:13
  TRACK 35 AUDIO
    INDEX 00 40:08:27
    INDEX 01 40:10:27
  TRACK 36 AUDIO
    INDEX 00 40:18:34
    INDEX 01 40:20:34
  TRACK 37 AUDIO
    INDEX 00 40:25:36
    INDEX 01 40:27:36
  TRACK 38 AUDIO
    INDEX 00 40:38:71
    INDEX 01 40:40:71
  TRACK 39 AUDIO
    INDEX 00 40:51:73
    INDEX 01 40:53:73
  TRACK 40 AUDIO
    INDEX 00 40:59:30
    INDEX 01 41:01:30
  TRACK 41 AUDIO
    INDEX 00 41:06:53
    INDEX 01 41:08:53
  TRACK 42 AUDIO
    INDEX 00 41:23:18
    INDEX 01 41:25:18
  TRACK 43 AUDIO
    INDEX 00 41:39:36
    INDEX 01 41:41:36
  TRACK 44 AUDIO
    INDEX 00 41:50:21
    INDEX 01 41:52:21
  TRACK 45 AUDIO
    INDEX 00 41:58:29
    INDEX 01 42:00:29
  TRACK 46 AUDIO
    INDEX 00 42:07:35
    INDEX 01 42:09:35
  TRACK 47 AUDIO
    INDEX 00 42:14:38
    INDEX 01 42:16:38
  TRACK 48 AUDIO
    INDEX 00 42:27:25
    INDEX 01 42:29:25
  TRACK 49 AUDIO
    INDEX 00 42:38:56
    INDEX 01 42:40:56
  TRACK 50 AUDIO
    INDEX 00 42:54:34
    INDEX 01 42:56:34
  TRACK 51 AUDIO
    INDEX 00 43:03:02
    INDEX 01 43:05:02
  TRACK 52 AUDIO
    INDEX 00 43:13:05
    INDEX 01 43:15:05
  TRACK 53 AUDIO
    INDEX 00 43:20:08
    INDEX 01 43:22:08
  TRACK 54 AUDIO
    INDEX 00 43:27:11
    INDEX 01 43:29:11
  TRACK 55 AUDIO
    INDEX 00 43:34:13
    INDEX 01 43:36:13
  TRACK 56 AUDIO
    INDEX 00 43:41:16
    INDEX 01 43:43:16
  TRACK 57 AUDIO
    INDEX 00 43:48:19
    INDEX 01 43:50:19
  TRACK 58 AUDIO
    INDEX 00 43:55:21
    INDEX 01 43:57:21
  TRACK 59 AUDIO
    INDEX 00 44:02:23
    INDEX 01 44:04:23
  TRACK 60 AUDIO
    INDEX 00 44:09:32
    INDEX 01 44:11:32
  TRACK 61 AUDIO
    INDEX 00 44:16:38
    INDEX 01 44:18:38
  TRACK 62 AUDIO
    INDEX 00 44:23:49
    INDEX 01 44:25:49
  TRACK 63 AUDIO
    INDEX 00 44:30:51
    INDEX 01 44:32:51
  TRACK 64 AUDIO
    INDEX 00 44:37:59
    INDEX 01 44:39:59
  TRACK 65 AUDIO
    INDEX 00 44:44:61
    INDEX 01 44:46:61
  TRACK 66 AUDIO
    INDEX 00 44:51:63
    INDEX 01 44:53:63
  TRACK 67 AUDIO
    INDEX 00 44:58:65
    INDEX 01 45:00:65
  TRACK 68 AUDIO
    INDEX 00 45:05:70
    INDEX 01 45:07:70
  TRACK 69 AUDIO
    INDEX 00 45:13:03
    INDEX 01 45:15:03
  TRACK 70 AUDIO
    INDEX 00 45:20:07
    INDEX 01 45:22:07
  TRACK 71 AUDIO
    INDEX 00 45:27:09
    INDEX 01 45:29:09
  TRACK 72 AUDIO
    INDEX 00 45:34:14
    INDEX 01 45:36:14
  TRACK 73 AUDIO
    INDEX 00 45:41:16
    INDEX 01 45:43:16
  TRACK 74 AUDIO
    INDEX 00 45:48:20
    INDEX 01 45:50:20
  TRACK 75 AUDIO
    INDEX 00 45:55:22
    INDEX 01 45:57:22
  TRACK 76 AUDIO
    INDEX 00 46:02:29
    INDEX 01 46:04:29
  TRACK 77 AUDIO
    INDEX 00 46:09:31
    INDEX 01 46:11:31
  TRACK 78 AUDIO
    INDEX 00 46:16:37
    INDEX 01 46:18:37
  TRACK 79 AUDIO
    INDEX 00 46:23:40
    INDEX 01 46:25:40
  TRACK 80 AUDIO
    INDEX 00 46:30:45
    INDEX 01 46:32:45
  TRACK 81 AUDIO
    INDEX 00 46:37:59
    INDEX 01 46:39:59
  TRACK 82 AUDIO
    INDEX 00 46:44:67
    INDEX 01 46:46:67
  TRACK 83 AUDIO
    INDEX 00 46:51:69
    INDEX 01 46:53:69
  TRACK 84 AUDIO
    INDEX 00 46:59:00
    INDEX 01 47:01:00
  TRACK 85 AUDIO
    INDEX 00 47:06:03
    INDEX 01 47:08:03
  TRACK 86 AUDIO
    INDEX 00 47:13:06
    INDEX 01 47:15:06
  TRACK 87 AUDIO
    INDEX 00 47:20:08
    INDEX 01 47:22:08
  TRACK 88 AUDIO
    INDEX 00 47:27:10
    INDEX 01 47:29:10
REM LEADOUT 50:30:43
